<?xml version="1.0" standalone="no"?>
<!DOCTYPE svg PUBLIC "-//W3C//DTD SVG 20010904//EN"
 "http://www.w3.org/TR/2001/REC-SVG-20010904/DTD/svg10.dtd">
<svg version="1.0" xmlns="http://www.w3.org/2000/svg"
 width="860.000000pt" height="900.000000pt" viewBox="0 0 860.000000 900.000000"
 preserveAspectRatio="xMidYMid meet">

<g transform="translate(0.000000,900.000000) scale(0.100000,-0.100000)"
fill="#000000" stroke="none">
<path d="M4059 8576 c-2 -2 -52 -6 -111 -10 -58 -3 -130 -10 -160 -16 -29 -5
-73 -11 -97 -14 -179 -23 -651 -144 -714 -183 -7 -4 -21 -9 -32 -10 -11 -2
-33 -10 -50 -17 -16 -8 -77 -33 -134 -55 -57 -23 -134 -58 -171 -77 -36 -19
-72 -34 -78 -34 -7 0 -12 -4 -12 -10 0 -5 -3 -9 -7 -8 -11 3 -73 -30 -210
-112 -64 -39 -118 -70 -120 -70 -2 0 -56 -37 -121 -82 -185 -129 -407 -312
-397 -328 3 -4 -1 -7 -9 -6 -14 1 -112 -90 -221 -205 -122 -130 -231 -260
-227 -271 1 -4 -2 -8 -7 -8 -9 0 -121 -146 -187 -245 -114 -169 -203 -323
-265 -455 -61 -130 -66 -142 -87 -190 -11 -25 -28 -65 -40 -90 -34 -78 -130
-370 -161 -495 -154 -612 -163 -1272 -25 -1875 43 -188 142 -502 155 -494 5 3
6 -1 4 -8 -6 -14 59 -185 76 -202 5 -6 9 -18 9 -29 0 -11 4 -15 12 -11 7 4 8
3 4 -4 -11 -18 156 -340 189 -364 5 -4 6 -8 2 -8 -10 0 33 -75 98 -170 29 -41
68 -99 88 -128 57 -84 98 -133 107 -127 4 3 7 -2 6 -9 -2 -21 164 -217 176
-210 7 4 8 2 4 -5 -10 -16 299 -325 315 -315 7 4 9 3 6 -3 -6 -9 34 -45 203
-183 24 -19 48 -37 54 -39 6 -2 13 -7 16 -10 3 -4 21 -18 40 -31 19 -13 37
-27 40 -31 7 -9 167 -112 210 -135 19 -11 49 -29 65 -40 17 -12 53 -33 80 -47
28 -13 76 -39 107 -56 33 -18 63 -29 70 -25 7 4 9 3 5 -1 -8 -10 7 -18 165
-89 59 -26 112 -45 118 -41 5 3 10 2 10 -3 0 -15 225 -93 246 -86 11 4 16 3
11 -1 -7 -8 35 -27 103 -44 19 -5 71 -19 115 -31 82 -21 104 -26 260 -54 171
-32 201 -36 385 -52 202 -18 578 -15 740 6 259 33 397 56 510 86 30 9 66 17
80 20 14 2 54 14 90 24 36 11 83 25 105 31 49 14 143 46 170 59 11 5 45 17 75
28 116 42 361 155 475 220 44 25 89 51 100 57 68 38 94 58 88 68 -3 6 -1 7 6
3 6 -4 24 0 39 10 15 10 38 24 50 31 25 14 289 209 309 229 7 6 9 15 5 19 -4
5 -1 5 5 1 8 -4 33 12 65 41 29 26 73 66 98 88 182 160 451 464 580 655 8 12
31 44 50 71 19 27 48 70 64 96 16 27 39 64 51 83 56 87 235 434 235 455 0 2
13 33 29 68 33 72 131 357 161 467 121 448 165 949 125 1405 -19 206 -47 389
-59 378 -5 -4 -6 0 -3 10 15 41 -89 444 -163 632 -119 304 -287 639 -386 772
-13 17 -24 35 -24 40 0 10 -175 247 -258 350 -102 125 -263 293 -275 286 -5
-3 -7 -1 -4 4 9 14 -155 166 -308 287 -27 22 -52 42 -55 46 -19 24 -385 270
-401 270 -6 0 -19 8 -29 18 -20 18 -342 183 -435 223 -27 11 -59 25 -70 30
-11 5 -58 23 -105 40 -386 137 -675 202 -1045 234 -150 13 -585 21 -596 11z
m404 -1451 c34 -4 85 -23 172 -61 22 -10 44 -17 48 -16 5 2 6 -2 3 -7 -4 -5 4
-13 16 -16 50 -16 208 -172 284 -280 81 -117 168 -317 217 -500 47 -178 59
-242 66 -373 5 -83 11 -116 21 -123 9 -5 249 -9 568 -9 606 0 577 3 639 -62
66 -68 70 -118 39 -488 -9 -107 -26 -330 -37 -495 -28 -410 -37 -540 -43 -610
-6 -74 -24 -318 -36 -480 -5 -66 -16 -221 -24 -345 -9 -124 -18 -241 -20 -260
-3 -19 -8 -96 -11 -170 -6 -141 -19 -250 -37 -310 -26 -88 -63 -175 -86 -202
-8 -9 -11 -23 -6 -30 4 -7 4 -10 -1 -6 -4 4 -22 -12 -40 -35 -66 -86 -182
-151 -301 -170 -61 -9 -446 -11 -1654 -7 -866 3 -1589 9 -1606 12 -55 12 -168
78 -221 131 -29 28 -53 55 -53 58 0 4 -16 34 -35 67 -69 116 -81 183 -110 632
-8 129 -17 246 -20 260 -5 29 -10 104 -25 345 -6 94 -12 179 -15 190 -2 11 -7
81 -10 155 -3 74 -11 176 -17 225 -6 50 -14 160 -18 245 -11 209 -38 599 -45
630 -11 52 -35 507 -29 547 9 63 56 130 107 153 40 19 71 20 588 20 462 0 548
2 558 14 7 8 13 43 15 78 4 85 33 276 58 368 10 41 24 92 29 114 5 21 14 47
20 58 5 10 12 31 14 47 5 44 98 234 161 330 125 190 319 331 514 374 61 13
302 24 316 14 7 -4 28 -10 47 -12z" fill="#DA6E8C"/>
<path d="M4215 6865 c-38 -7 -83 -18 -100 -24 -16 -7 -32 -12 -35 -12 -3 0
-30 -15 -60 -32 -65 -37 -162 -131 -212 -204 -42 -60 -110 -199 -113 -228 0
-5 -6 -19 -12 -30 -11 -21 -54 -174 -72 -260 -15 -72 -30 -190 -33 -265 l-3
-65 715 0 715 0 -3 60 c-6 131 -55 369 -109 525 -25 72 -114 250 -126 250 -6
0 -7 3 -4 7 12 11 -129 162 -188 202 -51 35 -131 65 -146 55 -7 -4 -9 -3 -6 3
6 10 -20 16 -108 27 -16 2 -61 -2 -100 -9z" fill="#DA6E8C"/>
<path d="M4167 5090 c-62 -12 -124 -31 -170 -54 -79 -39 -207 -138 -214 -167
-3 -10 -8 -17 -12 -14 -11 6 -68 -93 -93 -161 -18 -47 -22 -80 -22 -169 0
-103 2 -114 33 -178 55 -115 172 -226 331 -314 45 -25 118 -55 140 -58 3 0 16
-8 30 -17 14 -9 48 -23 76 -31 159 -47 338 -135 467 -230 173 -128 230 -334
141 -506 -77 -148 -290 -251 -517 -251 -204 0 -420 72 -625 207 -78 52 -85 54
-113 43 -37 -16 -59 -46 -59 -81 0 -28 22 -54 34 -41 4 4 6 2 4 -5 -4 -16 101
-95 115 -86 5 3 7 1 4 -4 -8 -12 69 -51 238 -122 130 -54 360 -81 520 -61 96
12 237 57 318 101 27 15 78 55 114 90 121 119 167 228 167 399 1 83 -3 104
-28 165 -36 87 -71 139 -151 224 -77 81 -232 180 -365 233 -52 21 -104 42
-115 47 -11 5 -51 19 -90 32 -128 40 -324 137 -377 188 -72 68 -92 92 -115
139 -23 47 -25 61 -20 131 3 48 13 97 26 126 65 147 236 257 426 276 88 8 193
2 235 -14 8 -3 51 -17 95 -32 44 -14 119 -48 167 -76 98 -56 124 -56 153 2 20
38 13 74 -18 90 -12 7 -35 22 -50 35 -60 50 -254 127 -352 138 -22 3 -60 10
-85 15 -64 14 -131 12 -243 -9z" fill="#DA6E8C"/>
</g>
</svg>
